<svg enable-background="new 0 0 64 64" viewBox="0 0 64 64" xmlns="http://www.w3.org/2000/svg"><g fill="#191a1b"><path d="m128 0h64v64h-64z"/><path d="m32 0c-25.6 0-32 6.4-32 32s6.4 32 32 32 32-6.4 32-32-6.4-32-32-32zm-5.3 49.5c-6.8 0-12.2-5.5-12.2-12.3s5.5-12.2 12.3-12.2 12.2 5.5 12.2 12.2c0 6.8-5.5 12.3-12.3 12.3zm22.3-.5h-6v-28h-28v-6h34z"/><circle cx="26.7" cy="37.2" r="6.2"/></g><path d="m143 21h28v28h6v-34h-34z" fill="#fff"/><path d="m154.8 25c-6.8 0-12.3 5.4-12.3 12.2s5.4 12.3 12.2 12.3 12.3-5.5 12.3-12.3c0-6.7-5.4-12.2-12.2-12.2zm-.1 18.4c-3.4 0-6.2-2.8-6.2-6.2s2.8-6.2 6.2-6.2 6.2 2.8 6.2 6.2-2.8 6.2-6.2 6.2z" fill="#fff"/></svg>